<svg width="143" height="36" viewBox="0 0 143 36" fill="none" xmlns="http://www.w3.org/2000/svg">
<g clip-path="url(#clip0_48_2)">
<g clip-path="url(#clip1_48_2)">
<path d="M19.1679 30.534C16.8599 29.28 16.9139 29.746 14.5099 27.096C14.1699 26.702 13.7699 26.214 13.2999 25.612C11.3459 23.112 10.8839 22.674 9.63989 22.674C8.54789 22.674 6.49589 22.968 5.71989 24.892C5.71989 23.876 5.77589 22.692 9.71389 21.564C13.6519 20.436 19.0339 18.07 19.0339 10.804C19.0339 7.49401 18.3319 6.40201 18.3319 6.40201C18.3319 6.40201 17.5179 8.41801 13.5979 9.45201C9.67789 10.486 7.53389 11.744 6.01789 13.576V9.78601C6.01789 9.25001 6.30989 8.32801 6.30989 8.32801H3.57789C1.70789 8.32801 0.189891 9.84401 0.189891 11.716V31.63C0.189891 32.496 0.133891 33.604 -0.412109 34.148H3.36189C4.82989 34.148 6.01989 32.96 6.01989 31.492V25.598L11.1399 32.122C11.3719 32.416 11.6399 32.694 11.9379 32.944C14.6359 35.374 19.1199 34.672 19.1679 30.532V30.534ZM4.24389 21.03C3.52589 16.22 7.87189 13.838 12.0279 12.762C16.1839 11.686 17.3079 9.45001 17.3079 9.45001C17.0479 11.202 14.8539 13.67 10.7319 14.618C6.60989 15.566 4.70789 18.498 4.24389 21.03Z" fill="#B1FF05"/>
</g>
<path d="M25.99 20.05C26.59 19.13 27.34 18.41 28.24 17.89C29.14 17.35 30.14 17.08 31.24 17.08V22.51H29.83C28.55 22.51 27.59 22.79 26.95 23.35C26.31 23.89 25.99 24.85 25.99 26.23V34H20.86V17.26H25.99V20.05ZM49.472 25.36C49.472 25.84 49.442 26.34 49.382 26.86H37.772C37.852 27.9 38.182 28.7 38.762 29.26C39.362 29.8 40.092 30.07 40.952 30.07C42.232 30.07 43.122 29.53 43.622 28.45H49.082C48.802 29.55 48.292 30.54 47.552 31.42C46.832 32.3 45.922 32.99 44.822 33.49C43.722 33.99 42.492 34.24 41.132 34.24C39.492 34.24 38.032 33.89 36.752 33.19C35.472 32.49 34.472 31.49 33.752 30.19C33.032 28.89 32.672 27.37 32.672 25.63C32.672 23.89 33.022 22.37 33.722 21.07C34.442 19.77 35.442 18.77 36.722 18.07C38.002 17.37 39.472 17.02 41.132 17.02C42.752 17.02 44.192 17.36 45.452 18.04C46.712 18.72 47.692 19.69 48.392 20.95C49.112 22.21 49.472 23.68 49.472 25.36ZM44.222 24.01C44.222 23.13 43.922 22.43 43.322 21.91C42.722 21.39 41.972 21.13 41.072 21.13C40.212 21.13 39.482 21.38 38.882 21.88C38.302 22.38 37.942 23.09 37.802 24.01H44.222ZM67.9584 25.36C67.9584 25.84 67.9284 26.34 67.8684 26.86H56.2584C56.3384 27.9 56.6684 28.7 57.2484 29.26C57.8484 29.8 58.5784 30.07 59.4384 30.07C60.7184 30.07 61.6084 29.53 62.1084 28.45H67.5684C67.2884 29.55 66.7784 30.54 66.0384 31.42C65.3184 32.3 64.4084 32.99 63.3084 33.49C62.2084 33.99 60.9784 34.24 59.6184 34.24C57.9784 34.24 56.5184 33.89 55.2384 33.19C53.9584 32.49 52.9584 31.49 52.2384 30.19C51.5184 28.89 51.1584 27.37 51.1584 25.63C51.1584 23.89 51.5084 22.37 52.2084 21.07C52.9284 19.77 53.9284 18.77 55.2084 18.07C56.4884 17.37 57.9584 17.02 59.6184 17.02C61.2384 17.02 62.6784 17.36 63.9384 18.04C65.1984 18.72 66.1784 19.69 66.8784 20.95C67.5984 22.21 67.9584 23.68 67.9584 25.36ZM62.7084 24.01C62.7084 23.13 62.4084 22.43 61.8084 21.91C61.2084 21.39 60.4584 21.13 59.5584 21.13C58.6984 21.13 57.9684 21.38 57.3684 21.88C56.7884 22.38 56.4284 23.09 56.2884 24.01H62.7084ZM77.4747 34.24C76.0147 34.24 74.7147 33.99 73.5747 33.49C72.4347 32.99 71.5347 32.31 70.8747 31.45C70.2147 30.57 69.8447 29.59 69.7647 28.51H74.8347C74.8947 29.09 75.1647 29.56 75.6447 29.92C76.1247 30.28 76.7147 30.46 77.4147 30.46C78.0547 30.46 78.5447 30.34 78.8847 30.1C79.2447 29.84 79.4247 29.51 79.4247 29.11C79.4247 28.63 79.1747 28.28 78.6747 28.06C78.1747 27.82 77.3647 27.56 76.2447 27.28C75.0447 27 74.0447 26.71 73.2447 26.41C72.4447 26.09 71.7547 25.6 71.1747 24.94C70.5947 24.26 70.3047 23.35 70.3047 22.21C70.3047 21.25 70.5647 20.38 71.0847 19.6C71.6247 18.8 72.4047 18.17 73.4247 17.71C74.4647 17.25 75.6947 17.02 77.1147 17.02C79.2147 17.02 80.8647 17.54 82.0647 18.58C83.2847 19.62 83.9847 21 84.1647 22.72H79.4247C79.3447 22.14 79.0847 21.68 78.6447 21.34C78.2247 21 77.6647 20.83 76.9647 20.83C76.3647 20.83 75.9047 20.95 75.5847 21.19C75.2647 21.41 75.1047 21.72 75.1047 22.12C75.1047 22.6 75.3547 22.96 75.8547 23.2C76.3747 23.44 77.1747 23.68 78.2547 23.92C79.4947 24.24 80.5047 24.56 81.2847 24.88C82.0647 25.18 82.7447 25.68 83.3247 26.38C83.9247 27.06 84.2347 27.98 84.2547 29.14C84.2547 30.12 83.9747 31 83.4147 31.78C82.8747 32.54 82.0847 33.14 81.0447 33.58C80.0247 34.02 78.8347 34.24 77.4747 34.24ZM97.6832 17.08C99.6032 17.08 101.143 17.72 102.303 19C103.463 20.26 104.043 22 104.043 24.22V34H98.9432V24.91C98.9432 23.79 98.6532 22.92 98.0732 22.3C97.4932 21.68 96.7132 21.37 95.7332 21.37C94.7532 21.37 93.9732 21.68 93.3932 22.3C92.8132 22.92 92.5232 23.79 92.5232 24.91V34H87.3932V11.8H92.5232V19.51C93.0432 18.77 93.7532 18.18 94.6532 17.74C95.5532 17.3 96.5632 17.08 97.6832 17.08ZM123.388 25.36C123.388 25.84 123.358 26.34 123.298 26.86H111.688C111.768 27.9 112.098 28.7 112.678 29.26C113.278 29.8 114.008 30.07 114.868 30.07C116.148 30.07 117.038 29.53 117.538 28.45H122.998C122.718 29.55 122.208 30.54 121.468 31.42C120.748 32.3 119.838 32.99 118.738 33.49C117.638 33.99 116.408 34.24 115.048 34.24C113.408 34.24 111.948 33.89 110.668 33.19C109.388 32.49 108.388 31.49 107.668 30.19C106.948 28.89 106.588 27.37 106.588 25.63C106.588 23.89 106.938 22.37 107.638 21.07C108.358 19.77 109.358 18.77 110.638 18.07C111.918 17.37 113.388 17.02 115.048 17.02C116.668 17.02 118.108 17.36 119.368 18.04C120.628 18.72 121.608 19.69 122.308 20.95C123.028 22.21 123.388 23.68 123.388 25.36ZM118.138 24.01C118.138 23.13 117.838 22.43 117.238 21.91C116.638 21.39 115.888 21.13 114.988 21.13C114.128 21.13 113.398 21.38 112.798 21.88C112.218 22.38 111.858 23.09 111.718 24.01H118.138ZM141.874 25.36C141.874 25.84 141.844 26.34 141.784 26.86H130.174C130.254 27.9 130.584 28.7 131.164 29.26C131.764 29.8 132.494 30.07 133.354 30.07C134.634 30.07 135.524 29.53 136.024 28.45H141.484C141.204 29.55 140.694 30.54 139.954 31.42C139.234 32.3 138.324 32.99 137.224 33.49C136.124 33.99 134.894 34.24 133.534 34.24C131.894 34.24 130.434 33.89 129.154 33.19C127.874 32.49 126.874 31.49 126.154 30.19C125.434 28.89 125.074 27.37 125.074 25.63C125.074 23.89 125.424 22.37 126.124 21.07C126.844 19.77 127.844 18.77 129.124 18.07C130.404 17.37 131.874 17.02 133.534 17.02C135.154 17.02 136.594 17.36 137.854 18.04C139.114 18.72 140.094 19.69 140.794 20.95C141.514 22.21 141.874 23.68 141.874 25.36ZM136.624 24.01C136.624 23.13 136.324 22.43 135.724 21.91C135.124 21.39 134.374 21.13 133.474 21.13C132.614 21.13 131.884 21.38 131.284 21.88C130.704 22.38 130.344 23.09 130.204 24.01H136.624Z" fill="#D9D9D9"/>
<g clip-path="url(#clip2_48_2)">
<path d="M103.704 0.0234461C102.661 0.142509 101.431 0.394696 100.346 0.714384C97.178 1.64532 94.8145 3.15845 93.4405 5.13282C92.7337 6.14907 92.278 7.30876 92.0962 8.55845C92.028 9.03188 92.0049 9.3647 92.0049 9.91407C92.0049 10.4456 92.028 10.8122 92.0924 11.3109C92.1183 11.5134 92.1712 11.8622 92.1789 11.8819C92.1818 11.8884 92.2058 11.8969 92.2337 11.9006C92.852 11.9747 93.1914 11.9944 93.8655 11.9944C94.3674 11.9944 94.5683 11.9878 94.9616 11.9569C97.2385 11.7778 99.1799 11.0775 100.649 9.9047C100.942 9.67126 101.336 9.30095 101.578 9.03282C103.229 7.20095 104.04 4.60126 103.996 1.2797C103.991 0.854071 103.985 0.675009 103.962 0.257821C103.948 0.0103207 103.946 8.58307e-06 103.92 0.000946045C103.909 0.000946045 103.812 0.0121956 103.704 0.0234461Z" fill="#B1FF05"/>
</g>
<g clip-path="url(#clip3_48_2)">
<path d="M80.1972 4.01565C80.8927 4.09503 81.7126 4.26315 82.4357 4.47628C84.5479 5.0969 86.1235 6.10565 87.0395 7.4219C87.5107 8.0994 87.8145 8.87253 87.9357 9.70565C87.9812 10.0213 87.9966 10.2432 87.9966 10.6094C87.9966 10.9638 87.9812 11.2082 87.9382 11.5407C87.9209 11.6757 87.8857 11.9082 87.8806 11.9213C87.8786 11.9257 87.8626 11.9313 87.844 11.9338C87.4318 11.9832 87.2056 11.9963 86.7562 11.9963C86.4216 11.9963 86.2876 11.9919 86.0254 11.9713C84.5075 11.8519 83.2132 11.385 82.2338 10.6032C82.0382 10.4475 81.7761 10.2007 81.6145 10.0219C80.5139 8.80065 79.9729 7.06753 80.0024 4.85315C80.0056 4.5694 80.01 4.45003 80.0254 4.1719C80.0344 4.0069 80.0357 4.00003 80.053 4.00065C80.0607 4.00065 80.1254 4.00815 80.1972 4.01565Z" fill="#B1FF05"/>
</g>
</g>
<defs>
<clipPath id="clip0_48_2">
<rect width="143" height="36" fill="white"/>
</clipPath>
<clipPath id="clip1_48_2">
<rect width="30" height="30" fill="white" transform="translate(-6 6)"/>
</clipPath>
<clipPath id="clip2_48_2">
<rect width="12" height="12" fill="white" transform="translate(92)"/>
</clipPath>
<clipPath id="clip3_48_2">
<rect width="8" height="8" fill="white" transform="matrix(-1 0 0 1 88 4)"/>
</clipPath>
</defs>
</svg>
